@startuml Application Architecture
skinparam groupInheritance 2

package WSI << Window System Integration >>
{
    interface WindowI
    {
        + const vector<const char*> getRequiredExtensions() const

        + void makeContextCurrent()
        + void swapBuffers()
        + void pollEvents()
        + bool shouldClose() const
    }
    abstract WindowABC
    {
        - unique_ptr<Surface> m_surface
        - unique_ptr<SwapChain> m_swapchain
    }
    WindowI <|-- WindowABC

    class WindowSDL
    WindowABC <|-- WindowSDL
    class WindowGLFW
    WindowABC <|-- WindowGLFW

    interface WSILoaderI
}

package Client << Client code >>
{
    class Application
    {
        - unique_ptr<WindowABC> m_window
        - shared_ptr<Context> m_context
        - vector<shared_ptr<PhysicalDevice>> m_physicalDevices
        - vector<shared_ptr<LogicalDevice>> m_devices
        - shared_ptr<Scene> m_scene
        - shared_ptr<RendererABC> m_renderer
        - shared_ptr<VideoDecoder> m_decoder
    }
    Application *-- WindowABC
    class ArgParser
}

package Graphics
{
    enum GraphicsAPIE
    {
        OPENGL
        VULKAN
        DIRECT3D11
        DIRECT3D12
    }
    hide GraphicsAPIE methods

    class Context
    {
        - vector<const char*> m_layers
        - vector<const char*> m_instanceExtensions
        - GraphicsAPIE m_graphicsApi
        + unique_ptr<InstanceABC> m_instance

        + void enumerateAvailableInstanceLayers() const
        + enumerateAvailableInstanceExtensions() const
        + enumerateAvailablePhysicalDevices() const
    }
    Application *-- Context

    abstract InstanceABC
    {
        - const Context& cx

        + void* getHandle() const
    }
    Context *-- InstanceABC
    class InstanceVk
    {
        - unique_ptr<VkInstance> m_handle

        + VkInstance getHandle()
    }
    InstanceABC <|-- InstanceVk
    class InstanceD3D12
    InstanceABC <|-- InstanceD3D12
    class InstanceGL
    InstanceABC <|-- InstanceGL

    class SwapChain
    {
        - vector<Image> m_images
        - vector<ImageView> m_imageViews
        - int m_frameInFlightCount
    }
    note bottom of SwapChain : swapchain buffering (frames in flight)
    note bottom of SwapChain : presentation management
    WindowABC *-- SwapChain
    class Surface
    WindowABC *-- Surface
    struct SurfaceDetailsT << SwapChainCompatibilityT >>

    package Device
    {
        class PhysicalDevice
        {
            - shared_ptr<VkPhysicalDevice> m_handle
            + VkPhysicalDeviceProperties properties
            + VkPhysicalDeviceLimits limits

            + unique_ptr<LogicalDevice> createDevice() const
        }
        Application *-- PhysicalDevice
        class QueueFamily
        PhysicalDevice *-- QueueFamily

        class LogicalDevice << Device >>
        {
            - unique_ptr<VkDevice> m_handle
            - vector<const char*> m_deviceExtensions
            + Queue graphicsQueue
            + Queue presentQueue
            + unique_ptr<CommandPool> commandPool
        }
        Application *-- LogicalDevice
        LogicalDevice .up.> PhysicalDevice

        class Queue
        LogicalDevice *-right- Queue
        class CommandPool
        LogicalDevice *-- CommandPool
    }

    package DeviceMemory
    {
        class Buffer
        class Image
        class ImageView
        class Sampler
    }

    package DeviceAsset
    {
        class VertexBuffer
        class UniformBuffer

        class Texture
        {
            + shared_ptr<Image> image
            + unique_ptr<ImageView> imageView
            + unique_ptr<Sampler> sampler
        }

        package pipeline << Rectangle >>
        {
            class Pipeline
            {
                - unique_ptr<Shader> m_shader
                - unique_ptr<PipelineLayout> m_pipelineLayout
            }
            class Shader
            Pipeline *-- Shader
            class PipelineLayout
            {
                - unique_ptr<PipelineLayout> m_handle
                - vector<DescriptorSetLayoutBinding> m_descriptorSetLayoutBindings
                - vector<DescriptorSetLayout> m_descriptorSetLayouts
            }
            Pipeline *-- PipelineLayout
        }

    }

    package Renderer
    {
        enum BufferingTypeE
        {
            SINGLE
            DOUBLE
            TRIPLE
        }
        hide BufferingTypeE methods

        package renderer << Rectangle >>
        {
            abstract RendererABC
            {
                # vector<BackBuffer> m_backBuffers
                # BufferingTypeE m_bufferingType
                # vector<shared_ptr<RenderStateABC>> m_renderStates
                # vector<shared_ptr<Pipeline>> m_pipelines
                # unique_ptr<RenderGraph> m_renderGraph

                + uint32_t acquireBackBuffer()

                + void recordBegin()
                + void recordEnd()

                + void submitBackBuffer()
                + void presentBackBuffer()
                + void swapBuffers()
            }
            note top : updated in the Render Thread with all the updated Render States
            Application *-- RendererABC
            RendererABC *-- Pipeline

            class DynamicRenderer
            note bottom : VK_KHR_dynamic_rendering extension
            RendererABC <|-- DynamicRenderer
            class LegacyRenderer << RenderPassBasedRenderer >>
            {
                - shared_ptr<RenderPass> m_renderPass
            }
            note left : with render passes
            RendererABC <|-- LegacyRenderer

            class RenderPass
            {
                - vector<unique_ptr<Framebuffer>> m_framebuffer
            }
            note bottom : as much framebuffers as there are frames in flight
            LegacyRenderer *-- RenderPass
            Pipeline .. RenderPass
            interface FramebufferI
            LegacyRenderer *-- FramebufferI
            FramebufferI ..> RenderPass
            class ImageFramebuffer
            {
                - shared_ptr<ImageView> m_imageView
                - shared_ptr<RenderPass> m_renderPass
            }
            note bottom : image view from swap chain or whatever image handling system
            FramebufferI <|-- ImageFramebuffer
            ImageFramebuffer *-- ImageView
            class ImageLessFramebuffer
            note bottom : VK_KHR_imageless_framebuffer extension
            FramebufferI <|-- ImageLessFramebuffer

            class BackBuffer
            {
                + unique_ptr<CommandBuffer> commandBuffer
                + unique_ptr<Semaphore> acquireSemaphore
                + unique_ptr<Semaphore> renderSemaphore
                + unique_ptr<Fence> inFlightFence
            }
            RendererABC *-right- BackBuffer
        }

        package rendergraph << Rectangle >>
        {
            class RenderGraph
            {
                - vector<unique_ptr<RenderPhaseABC>> m_renderPhases
            }
            note top : each render phase of the graph have a RenderPass object ?
            RendererABC *-- RenderGraph

            abstract RenderPhaseABC
            RenderGraph *-- RenderPhaseABC
            class Opaque
            RenderPhaseABC <|-- Opaque
            class Transparent
            RenderPhaseABC <|-- Transparent
            class ShadowMapping
            RenderPhaseABC <|-- ShadowMapping
        }

        package renderstate << Rectangle >>
        {
            abstract RenderStateABC
            RendererABC *-right- RenderStateABC
            class MeshRenderState << MeshRenderer >>
            {
                - unique_ptr<DescriptorPool> m_descriptorPool
                - vector<DescriptorSet> m_descriptorSets
                - vector<Buffer> m_uniformBuffers
                - vector<void*> m_uniformBuffersMapped
                - shared_ptr<Mesh> m_mesh
                - shared_ptr<Material> m_material

                + void recordBegin()
                + void recordDescriptorCommands()
                + void recordDrawCommands()
                + void recordEnd()
            }
            RenderStateABC <|-- MeshRenderState
        }
        class Material
        {
            - vector<Texture> m_textures
            - shared_ptr<Pipeline> m_pipeline
        }
        MeshRenderState *-- Material
        Material ..> Pipeline
        Material *-- Texture
    }
}

package Engine
{
    class Transform
    {
        + vec3 position
        + quaternion rotation
        + vec3 scale
    }
    class Object
    class WorldObject
    {
        # Transform m_transform
    }
    Object <|-- WorldObject
    class Camera
    WorldObject <|-- Camera

    package EngineTypes
    {
        class Color

        class Vertex
        class VertexDesc

        class Uniform
        class UniformDesc
    }
}

package HostMemory
{
    package resourcemanager << Rectangle >>
    {
        class ResourceManager
        interface ResourceI

        package Saved
        {
            class Mesh
            {
                - vector<Vertex> m_vertices
                - vector<int> m_indices
                - unique_ptr<Buffer> m_vertexBuffer
                - unique_ptr<Buffer> m_indexBuffer
                - unique_ptr<Texture> m_texture
            }
            ResourceI <|-- Mesh
            MeshRenderState *-- Mesh
            class Texture
            {
                - unique_ptr<Image> m_image
                - unique_ptr<ImageView> m_imageView
                - unique_ptr<Sampler> m_sampler
            }
            ResourceI <|-- Texture
            class Scene
            {
                - vector<shared_ptr<RenderStatesABC> m_renderStates
            }
            Scene *-left- RenderStateABC
            ResourceI <|-- Scene
        }
    }
    package assetmanager << Rectangle >>
    {
        class AssetManager
        interface AssetI
    }
}

package Video
{
    class VideoDecoder

    class HardwareVideoDecoder
    class Slot
    HardwareVideoDecoder *-right- Slot
    class Frame
    Slot *-right- Frame
}

@enduml
